<?xml version="1.0" encoding="UTF-8" standalone="no"?>
<!-- Created with Inkscape (http://www.inkscape.org/) -->

<svg
   version="1.1"
   id="svg181"
   width="512"
   height="512"
   viewBox="0 0 512 512"
   sodipodi:docname="favicon.svg"
   inkscape:version="1.2.2 (b0a8486541, 2022-12-01)"
   xmlns:inkscape="http://www.inkscape.org/namespaces/inkscape"
   xmlns:sodipodi="http://sodipodi.sourceforge.net/DTD/sodipodi-0.dtd"
   xmlns="http://www.w3.org/2000/svg"
   xmlns:svg="http://www.w3.org/2000/svg">
  <defs
     id="defs185" />
  <sodipodi:namedview
     id="namedview183"
     pagecolor="#ffffff"
     bordercolor="#000000"
     borderopacity="0.25"
     inkscape:showpageshadow="2"
     inkscape:pageopacity="0.0"
     inkscape:pagecheckerboard="0"
     inkscape:deskcolor="#d1d1d1"
     showgrid="false"
     inkscape:zoom="2.2773438"
     inkscape:cx="256"
     inkscape:cy="241.07033"
     inkscape:window-width="2560"
     inkscape:window-height="1444"
     inkscape:window-x="0"
     inkscape:window-y="1118"
     inkscape:window-maximized="1"
     inkscape:current-layer="g187" />
  <g
     inkscape:groupmode="layer"
     inkscape:label="Image"
     id="g187">
    <rect
       style="fill:#ffffff;stroke-width:0.974941"
       id="rect467"
       width="431.41544"
       height="321.86386"
       x="40.13406"
       y="96.372696" />
    <path
       style="fill:#000000;stroke-width:1.00182"
       d="M 42.58317,511.67809 C 24.721083,508.6402 9.8026662,496.25031 2.7143815,478.5667 L 0,471.79493 V 255.93122 40.06751 L 2.2587917,34.138244 C 8.1229752,18.744908 20.159444,7.0836332 35.569472,1.8659059 40.877198,0.06874583 48.9985,0 256,0 463.0015,0 471.1228,0.06874583 476.43053,1.8659059 491.73051,7.0463734 503.13809,17.959093 509.28562,33.295745 L 512,40.06751 v 215.36286 c 0,207.43443 -0.0687,215.56569 -1.86641,220.87215 -5.21913,15.40589 -16.88354,27.43912 -32.28101,33.30173 l -5.93086,2.25819 -213.41683,0.12083 c -117.37925,0.0664 -214.544029,-0.0709 -215.92172,-0.30518 z M 398.77886,380.77282 c 5.71202,-1.47692 14.53811,-4.82192 20.5299,-7.78063 9.00711,-4.44764 11.7334,-6.42074 19.06191,-13.7957 13.52951,-13.61524 19.03895,-27.55382 19.00528,-48.08225 -0.0386,-23.49366 -7.00788,-39.17202 -22.71318,-51.09589 -9.54765,-7.24881 -28.09614,-16.20841 -43.70254,-21.10987 -37.25363,-11.7002 -49.08513,-16.79321 -58.0581,-24.99179 -7.22177,-6.59852 -9.99367,-12.89351 -9.99367,-22.6956 0,-14.09398 5.5512,-23.25954 17.96256,-29.65792 10.57529,-5.45184 14.95203,-6.3028 32.35794,-6.29133 13.12499,0.009 16.74707,0.36111 23.38631,2.27564 10.05987,2.90092 20.8546,8.24938 28.88918,14.31369 l 6.33899,4.78452 8.01566,-8.60054 c 12.08113,-12.96265 11.8202,-11.29461 2.77991,-17.77118 -17.36219,-12.43849 -36.60204,-19.51439 -58.95167,-21.68085 -21.77975,-2.11121 -39.74711,0.80324 -57.45333,9.31941 -8.77539,4.22071 -11.6282,6.22623 -18.04236,12.68377 -12.06818,12.1498 -17.13646,24.49963 -17.10835,41.68778 0.059,36.10204 19.28721,52.49366 86.92757,74.10398 35.76411,11.42623 46.41809,22.04683 46.41809,46.27271 0,18.72503 -8.19396,31.00203 -26.2787,39.37332 -10.31666,4.7755 -21.08681,6.45056 -36.9335,5.74418 -24.80965,-1.1059 -37.97109,-6.31018 -60.71237,-24.00682 -2.28037,-1.77452 -2.34789,-1.7474 -6.23512,2.50422 -9.53207,10.42564 -14.2429,16.25664 -13.91885,17.22854 0.5626,1.68733 13.58432,11.25295 20.17967,14.82377 22.33195,12.09084 39.89182,15.96943 69.693,15.39367 15.93815,-0.30793 19.94056,-0.72123 28.55577,-2.94883 z M 95.768087,348.58733 105.43104,317.53501 h 49.41605 49.41603 l 9.68571,31.05232 9.68571,31.05232 16.18272,0.27524 C 248.71777,380.06627 256,379.87562 256,379.49126 256,379.10689 239.12003,326.92032 218.48896,263.5211 197.85788,200.12187 179.80305,144.53102 178.36709,139.98586 l -2.61083,-8.26392 h -19.91784 -19.91785 l -1.02891,3.25548 c -4.5538,14.40827 -79.616952,243.83663 -79.973799,244.43763 -0.253765,0.4274 6.659557,0.65278 15.362936,0.50084 l 15.824327,-0.27624 z m 18.955983,-58.76138 c 0,-1.39632 38.97346,-127.012 39.95925,-128.79296 0.37761,-0.68223 8.72081,24.88907 18.54044,56.82511 9.81962,31.93604 18.90006,61.45552 20.17877,65.59886 l 2.32491,7.53333 h -40.50168 c -30.10505,0 -40.50169,-0.29888 -40.50169,-1.16434 z"
       id="path349" />
  </g>
</svg>
